<?xml version="1.0" standalone="no"?><!DOCTYPE svg PUBLIC "-//W3C//DTD SVG 1.1//EN" "http://www.w3.org/Graphics/SVG/1.1/DTD/svg11.dtd"><svg t="1620368256513" class="icon" viewBox="0 0 1024 1024" version="1.1" xmlns="http://www.w3.org/2000/svg" p-id="15794" xmlns:xlink="http://www.w3.org/1999/xlink" width="64" height="64"><defs><style type="text/css"></style></defs><path d="M989.866667 273.066667H298.666667c-17.066667 0-34.133333 17.066667-34.133334 34.133333v682.666667c0 17.066667 17.066667 34.133333 34.133334 34.133333h691.2c17.066667 0 34.133333-17.066667 34.133333-34.133333v-682.666667c0-17.066667-17.066667-34.133333-34.133333-34.133333z m-34.133334 682.666666H332.8V341.333333h622.933333v614.4z" p-id="15795"></path><path d="M149.333333 725.333333h-85.333333V64H725.333333v98.133333c0 17.066667 12.8 34.133333 34.133334 34.133334 17.066667 0 34.133333-12.8 34.133333-34.133334v-128c0-17.066667-12.8-34.133333-34.133333-34.133333H34.133333C12.8 0 0 12.8 0 34.133333v725.333334c0 17.066667 12.8 34.133333 34.133333 34.133333h119.466667c17.066667 0 34.133333-12.8 34.133333-34.133333S170.666667 725.333333 149.333333 725.333333z" p-id="15796"></path></svg>