<?xml version="1.0" standalone="no"?><!DOCTYPE svg PUBLIC "-//W3C//DTD SVG 1.1//EN" "http://www.w3.org/Graphics/SVG/1.1/DTD/svg11.dtd"><svg t="1620361091086" class="icon" viewBox="0 0 1024 1024" version="1.1" xmlns="http://www.w3.org/2000/svg" p-id="4104" xmlns:xlink="http://www.w3.org/1999/xlink" width="200" height="200"><defs><style type="text/css"></style></defs><path d="M910.933333 96H113.066667a17.066667 17.066667 0 0 0-17.066667 17.066667v797.866666c0 9.386667 7.68 17.066667 17.066667 17.066667h797.866666a17.066667 17.066667 0 0 0 17.066667-17.066667V113.066667a17.066667 17.066667 0 0 0-17.066667-17.066667z m-46.933333 72.533333v686.933334a8.533333 8.533333 0 0 1-8.533333 8.533333H168.533333a8.533333 8.533333 0 0 1-8.533333-8.533333V168.533333c0-4.693333 3.84-8.533333 8.533333-8.533333h686.933334c4.693333 0 8.533333 3.84 8.533333 8.533333z" p-id="4105"></path></svg>